<?xml version="1.0" encoding="utf-8"?>
<!-- Generator: Adobe Illustrator 23.0.3, SVG Export Plug-In . SVG Version: 6.00 Build 0)  -->
<svg version="1.1" id="Слой_1" xmlns="http://www.w3.org/2000/svg" xmlns:xlink="http://www.w3.org/1999/xlink" x="0px" y="0px"
	 viewBox="0 0 160 90" style="enable-background:new 0 0 160 90;" xml:space="preserve">
<style type="text/css">
	.st0{fill:url(#SVGID_1_);stroke:#D79906;stroke-width:0.4526;}
	.st1{fill:url(#SVGID_2_);stroke:#D79906;stroke-width:0.4526;}
	.st2{fill:url(#SVGID_3_);stroke:#D79906;stroke-width:0.4526;}
	.st3{fill:url(#SVGID_4_);stroke:#D79906;stroke-width:0.4526;}
	.st4{fill:url(#SVGID_5_);stroke:#D79906;stroke-width:0.4526;}
	.st5{fill:url(#SVGID_6_);stroke:#D79906;stroke-width:0.4526;}
</style>
<linearGradient id="SVGID_1_" gradientUnits="userSpaceOnUse" x1="18.0182" y1="27.4418" x2="52.3314" y2="61.7549">
	<stop  offset="0" style="stop-color:#FFE0A2"/>
	<stop  offset="0.1932" style="stop-color:#F3C980"/>
	<stop  offset="0.237" style="stop-color:#F0C377"/>
	<stop  offset="0.2894" style="stop-color:#F1C67B"/>
	<stop  offset="0.3402" style="stop-color:#F3CD87"/>
	<stop  offset="0.3902" style="stop-color:#F7DA9A"/>
	<stop  offset="0.4396" style="stop-color:#FCECB5"/>
	<stop  offset="0.4661" style="stop-color:#FFF8C7"/>
	<stop  offset="0.4882" style="stop-color:#FBEEB6"/>
	<stop  offset="0.5385" style="stop-color:#F5DB95"/>
	<stop  offset="0.5928" style="stop-color:#EFCB7A"/>
	<stop  offset="0.6516" style="stop-color:#EABF65"/>
	<stop  offset="0.7172" style="stop-color:#E7B756"/>
	<stop  offset="0.7949" style="stop-color:#E6B24E"/>
	<stop  offset="0.9156" style="stop-color:#E5B04B"/>
</linearGradient>
<path class="st0" d="M39,41.6c1.2,0,2.4,0.1,3.6,0c1.1-0.1,1.9-0.7,2.2-2c2.2,3.2,2.5,9.7-2,14.1c-4.8,4.7-12,4.1-15.9,0.6
	c2.6,0.3,5.2,0.3,7.7,0.1c1.2-0.1,2.4-0.3,3.6-0.8c1.7-0.8,2.8-2.1,3.4-3.8c0.7-1.9,1.4-3.8,2-5.8c-0.3,0-0.4,0-0.6,0
	c-2.1,0-4.2,0-6.3,0c-1.6,0-2.6,0.7-2.9,2.2c-0.1,0.4-0.2,0.7-0.4,1.2c1.2,0,2.4,0,3.6,0c-0.4,2-1.4,3.1-3.2,3.1c-0.9,0-1.8,0-2.8,0
	c-1.3,0-2.1-0.9-1.7-2.2c0.6-2.1,1.3-4.3,2-6.4c0.4-1.2,1.4-1.9,2.6-2c1.3-0.1,2.5-0.1,3.8,0c0.9,0.1,1.1,0.5,1.1,1.4
	C39,41.4,39,41.5,39,41.6z M8.6,41.9c-0.1,0.3-0.2,0.5-0.3,0.8c-0.8,2.3-1.4,4.6-1,7c0.3,1.8,1,3.3,2.4,4.5c2.1,1.8,4.6,2.5,7.2,2.7
	c1.1,0.1,2.2,0.1,3.4,0c1.3-0.1,2.6-0.3,4.1-0.4c-3.8-3.8-5.5-8.2-4.8-13.3c0.7-5.2,3.5-9,8.2-11.4c3.8-1.9,7.7-2.2,11.7-0.7
	c5.3,1.9,8.5,5.7,9.8,11.2c0.1-0.1,0.1-0.1,0.1-0.1c2-2.2,3.6-4.5,4.8-7.2c0.8-2,1.3-4.2,0.9-6.4c-0.4-2-1.5-3.6-3.1-4.8
	c-1.4-1.1-3.1-1.7-4.8-2.1c-0.8-0.2-1.5-0.3-2.3-0.5c0,0.1,0,0.1,0.1,0.2c0.1,0,0.2,0,0.3,0.1c2,0.6,3.8,1.4,5.3,2.7
	c2.1,1.8,2.9,4.1,2.7,6.9c0,0.2-0.1,0.4-0.4,0.5c-0.7,0.2-1.5,0.4-2.2,0.6c-0.1,0-0.3,0-0.4-0.1c-0.8-0.8-1.7-1.6-2.5-2.5
	c-0.1-0.1-0.2-0.4-0.1-0.5c0.3-1.2,0.6-2.4,1-3.5c0.1-0.2,0.1-0.4-0.2-0.5c-1.2-0.7-2.4-1.4-3.6-2.1c-0.1,0.1-0.2,0.1-0.2,0.2
	c-0.9,0.9-1.7,1.8-2.6,2.7C41.8,26,41.6,26,41.4,26c-1.1-0.3-2.1-0.6-3.2-0.8c-0.4-0.1-0.5-0.3-0.6-0.6c-0.3-1.2-0.6-2.3-0.8-3.5
	c-0.1-0.3-0.1-0.3-0.4-0.3c-1.3,0-2.6,0-3.9,0c-0.3,0-0.4,0.1-0.4,0.3c-0.3,1.1-0.6,2.2-0.8,3.4c-0.1,0.4-0.2,0.6-0.6,0.6
	c-0.9,0.2-1.7,0.4-2.5,0.7c-0.7,0.2-1.1,0.1-1.6-0.5c-0.7-0.9-1.6-1.6-2.5-2.4c-1.1,0.6-2.3,1.3-3.5,2c-0.3,0.1-0.3,0.3-0.2,0.6
	c0.4,1.2,0.7,2.3,1,3.5c0,0.2,0,0.4-0.1,0.5c-0.8,0.8-1.6,1.7-2.4,2.5c-0.1,0.1-0.3,0.1-0.4,0.1c-1.2-0.3-2.4-0.6-3.6-1
	c-0.3-0.1-0.4-0.1-0.6,0.2c-0.7,1.2-1.4,2.4-2.1,3.7c0.9,0.9,1.9,1.8,2.8,2.7c0.3,0.2,0.3,0.4,0.2,0.8c-0.3,1-0.6,2.1-0.9,3.2
	c0,0.1-0.2,0.3-0.3,0.3c-1.2,0.3-2.5,0.6-3.7,1c-0.1,0-0.3,0.2-0.3,0.3c0,1.3,0,2.7,0,4c0,0.1,0.1,0.3,0.2,0.3
	c1.2,0.3,2.5,0.6,3.7,1c0.1,0,0.3,0.2,0.4,0.4c0.3,1.1,0.6,2.1,0.9,3.2c0,0.2,0,0.4-0.1,0.5c-0.4,0.5-0.9,0.9-1.4,1.4
	c-0.1,0.1-0.3,0.2-0.4,0.1c-1.4-0.6-2.6-1.4-3.5-2.7C8,49.2,7.9,46.7,8.3,44C8.4,43.3,8.6,42.6,8.6,41.9C8.7,41.9,8.7,41.9,8.6,41.9
	z M56.3,25.2c1.1,0.8,2,1.8,2.5,3c0.8,1.7,1,3.4,0.8,5.2c-0.3,3.2-1.6,5.9-3.3,8.5c0,0.1-0.1,0.2-0.2,0.3c0.5,0.1,0.9,0.3,1.4,0.4
	c0.3,0.1,0.7,0.2,1,0.3c0.3,0,0.3,0.2,0.3,0.5c0,1.4,0,2.7,0,4.2c-0.5,0.1-1,0.3-1.5,0.4c-0.8,0.2-1.7,0.4-2.5,0.7
	c-0.1,0-0.3,0.2-0.3,0.3c-0.3,1.1-0.6,2.3-0.9,3.4c0,0.2,0.2,0.4,0.3,0.6c0.8,0.9,1.7,1.9,2.6,2.9c-0.6,1.1-1.4,2.4-2.1,3.7
	c-1.2-0.4-2.5-0.7-3.7-1.1c-0.4-0.1-0.7-0.1-1,0.2c-0.7,0.8-1.5,1.5-2.3,2.3c-0.1,0.1-0.1,0.4-0.1,0.6c0.3,1.1,0.6,2.2,1,3.4
	c0.1,0.3,0.1,0.5-0.3,0.7c-1,0.6-2.1,1.2-3.1,1.8c-0.3,0.2-0.5,0.2-0.8-0.1c-0.8-0.9-1.6-1.7-2.5-2.5c-0.1-0.1-0.4-0.2-0.5-0.1
	c-1,0.3-2.1,0.5-3.1,0.8c-0.4,0.1-0.6,0.3-0.6,0.7c-0.3,1.1-0.5,2.2-0.8,3.3c-0.1,0.3-0.2,0.4-0.5,0.4c-1.2,0-2.4,0-3.6,0
	c-0.4,0-0.5-0.1-0.6-0.5c-0.3-1.1-0.6-2.3-0.8-3.4c-0.1-0.3-0.2-0.4-0.5-0.5c-1.1-0.3-2.2-0.6-3.4-0.9c-0.1,0-0.3,0.1-0.4,0.2
	c-0.8,0.8-1.6,1.7-2.4,2.5c-0.1,0.1-0.2,0.3-0.3,0.4c-1.4-0.8-2.7-1.6-4-2.3c0.3-1,0.6-2,0.9-3.1c-0.3,0-0.6,0.1-0.8,0.1
	c-1.1,0-2.1-0.1-3.2-0.2c-1.5,0-3-0.4-4.5-1c-2.8-1-5-2.8-6-5.7c-0.1-0.3-0.2-0.7-0.3-1c-0.1-0.3-0.1-0.6-0.1-1
	c0.1,0.3,0.2,0.6,0.4,0.9c1.1,2.4,3,3.9,5.5,4.9c3.1,1.2,6.3,1.3,9.6,1c2.2-0.2,4.3-0.6,6.4-1.2c0.2-0.1,0.5,0,0.7,0
	c1.4,0.3,2.7,0.8,4.1,1c1.4,0.2,2.8,0.1,4.3-0.1c2.2-0.4,4.3-1.3,6.1-2.6c2.2-1.6,3.8-3.6,4.9-6c0.6-1.3,1-2.6,1.2-4
	c0-0.2,0.1-0.3,0.2-0.4c1.4-1.6,3-3.1,4.3-4.8c2-2.5,3.5-5.3,4.2-8.4c0.6-2.6,0.4-5.2-1.1-7.6C56.8,25.9,56.5,25.5,56.3,25.2z
	 M23.5,49.4c-1.7-3.7-1-9.9,3.9-13.6c4.9-3.7,11.1-2.7,14.2,0c-1.9,0-4-0.1-6,0c-2.1,0.1-4.2,0.3-6.1,1.4c-1.4,0.8-2.5,2.1-3.1,3.6
	c-0.6,1.6-1.2,3.2-1.7,4.8C24.2,46.9,23.8,48.2,23.5,49.4z"/>
<g>
	<linearGradient id="SVGID_2_" gradientUnits="userSpaceOnUse" x1="64.0856" y1="39.2762" x2="75.8101" y2="51.0008">
		<stop  offset="0" style="stop-color:#FFE0A2"/>
		<stop  offset="0.1932" style="stop-color:#F3C980"/>
		<stop  offset="0.237" style="stop-color:#F0C377"/>
		<stop  offset="0.2894" style="stop-color:#F1C67B"/>
		<stop  offset="0.3402" style="stop-color:#F3CD87"/>
		<stop  offset="0.3902" style="stop-color:#F7DA9A"/>
		<stop  offset="0.4396" style="stop-color:#FCECB5"/>
		<stop  offset="0.4661" style="stop-color:#FFF8C7"/>
		<stop  offset="0.4882" style="stop-color:#FBEEB6"/>
		<stop  offset="0.5385" style="stop-color:#F5DB95"/>
		<stop  offset="0.5928" style="stop-color:#EFCB7A"/>
		<stop  offset="0.6516" style="stop-color:#EABF65"/>
		<stop  offset="0.7172" style="stop-color:#E7B756"/>
		<stop  offset="0.7949" style="stop-color:#E6B24E"/>
		<stop  offset="0.9156" style="stop-color:#E5B04B"/>
	</linearGradient>
	<path class="st1" d="M60.5,54.4l3.8-14.3c0.2-0.7,0.6-1.7,1.4-2.4c0.5-0.4,1.4-0.9,2.6-0.9H78c1.4,0,2.7,0.2,3.4,1.2
		c0.6,0.9,0.7,2.3,0,4.8c-0.3,1.2-1.2,4.3-3.1,5.5c-1,0.7-2.4,1-3.4,1h-7.4l-1.4,5.1H60.5z M72.8,44.9c0.7,0,1.4,0.1,2-0.5
		c0.4-0.3,0.7-0.8,0.9-1.5c0.1-0.5,0.2-1-0.1-1.4c-0.4-0.4-1-0.4-1.7-0.4h-3.2c-0.9,0-1.2,0.7-1.3,1l-0.7,2.7H72.8z"/>
	<linearGradient id="SVGID_3_" gradientUnits="userSpaceOnUse" x1="83.5783" y1="43.0139" x2="96.7067" y2="56.1424">
		<stop  offset="0" style="stop-color:#FFE0A2"/>
		<stop  offset="0.1932" style="stop-color:#F3C980"/>
		<stop  offset="0.237" style="stop-color:#F0C377"/>
		<stop  offset="0.2894" style="stop-color:#F1C67B"/>
		<stop  offset="0.3402" style="stop-color:#F3CD87"/>
		<stop  offset="0.3902" style="stop-color:#F7DA9A"/>
		<stop  offset="0.4396" style="stop-color:#FCECB5"/>
		<stop  offset="0.4661" style="stop-color:#FFF8C7"/>
		<stop  offset="0.4882" style="stop-color:#FBEEB6"/>
		<stop  offset="0.5385" style="stop-color:#F5DB95"/>
		<stop  offset="0.5928" style="stop-color:#EFCB7A"/>
		<stop  offset="0.6516" style="stop-color:#EABF65"/>
		<stop  offset="0.7172" style="stop-color:#E7B756"/>
		<stop  offset="0.7949" style="stop-color:#E6B24E"/>
		<stop  offset="0.9156" style="stop-color:#E5B04B"/>
	</linearGradient>
	<path class="st2" d="M88.1,38.7c0.9-1.3,1.9-2.1,4.6-2.1c1.7,0,3.2,0.2,3.5,2.1l2.3,15.7h-6L92,50.8h-6.4l-2.4,3.6h-6L88.1,38.7z
		 M88.1,46.7h3.6l-0.4-4.5c0-0.1,0-0.4-0.1-0.4c-0.1,0-0.2,0.3-0.3,0.4L88.1,46.7z"/>
	<linearGradient id="SVGID_4_" gradientUnits="userSpaceOnUse" x1="102.4761" y1="39.2547" x2="117.347" y2="54.1257">
		<stop  offset="0" style="stop-color:#FFE0A2"/>
		<stop  offset="0.1932" style="stop-color:#F3C980"/>
		<stop  offset="0.237" style="stop-color:#F0C377"/>
		<stop  offset="0.2894" style="stop-color:#F1C67B"/>
		<stop  offset="0.3402" style="stop-color:#F3CD87"/>
		<stop  offset="0.3902" style="stop-color:#F7DA9A"/>
		<stop  offset="0.4396" style="stop-color:#FCECB5"/>
		<stop  offset="0.4661" style="stop-color:#FFF8C7"/>
		<stop  offset="0.4882" style="stop-color:#FBEEB6"/>
		<stop  offset="0.5385" style="stop-color:#F5DB95"/>
		<stop  offset="0.5928" style="stop-color:#EFCB7A"/>
		<stop  offset="0.6516" style="stop-color:#EABF65"/>
		<stop  offset="0.7172" style="stop-color:#E7B756"/>
		<stop  offset="0.7949" style="stop-color:#E6B24E"/>
		<stop  offset="0.9156" style="stop-color:#E5B04B"/>
	</linearGradient>
	<path class="st3" d="M102.8,40.1c0.2-0.8,0.5-1.8,1.4-2.5c0.9-0.7,1.9-0.9,2.6-0.9h9.6c1.1,0,3,0,3.8,1.7c0.5,1.1,0.2,2.7-0.2,4
		c-0.2,0.8-0.8,2.9-1.8,4.3c-1.1,1.6-2.5,2.2-3.9,2.2h-0.8l0,0.1l3.6,5.3h-6.9l-2.2-4.6c-0.4-0.8-0.8-1.5-0.6-2.4l0.1-0.4
		c0.3-1.2,1.6-2,3.1-2h0.9c0.5,0,1.2-0.1,1.7-0.5c0.4-0.4,0.6-1,0.8-1.5c0.3-1,0.1-1.4,0-1.5c-0.3-0.5-0.9-0.4-1.5-0.4h-3.2
		c-0.3,0-0.6,0-1,0.3c-0.4,0.3-0.5,0.7-0.6,1.1l-3.2,11.9H99L102.8,40.1z"/>
	<linearGradient id="SVGID_5_" gradientUnits="userSpaceOnUse" x1="122.6067" y1="36.2001" x2="135.0627" y2="48.6561">
		<stop  offset="0" style="stop-color:#FFE0A2"/>
		<stop  offset="0.1932" style="stop-color:#F3C980"/>
		<stop  offset="0.237" style="stop-color:#F0C377"/>
		<stop  offset="0.2894" style="stop-color:#F1C67B"/>
		<stop  offset="0.3402" style="stop-color:#F3CD87"/>
		<stop  offset="0.3902" style="stop-color:#F7DA9A"/>
		<stop  offset="0.4396" style="stop-color:#FCECB5"/>
		<stop  offset="0.4661" style="stop-color:#FFF8C7"/>
		<stop  offset="0.4882" style="stop-color:#FBEEB6"/>
		<stop  offset="0.5385" style="stop-color:#F5DB95"/>
		<stop  offset="0.5928" style="stop-color:#EFCB7A"/>
		<stop  offset="0.6516" style="stop-color:#EABF65"/>
		<stop  offset="0.7172" style="stop-color:#E7B756"/>
		<stop  offset="0.7949" style="stop-color:#E6B24E"/>
		<stop  offset="0.9156" style="stop-color:#E5B04B"/>
	</linearGradient>
	<path class="st4" d="M123.6,54.4l3.6-13.3h-6.3l1.2-4.4h18.3l-1.2,4.4h-6.3l-3.6,13.3H123.6z"/>
	<linearGradient id="SVGID_6_" gradientUnits="userSpaceOnUse" x1="139.9291" y1="39.2973" x2="152.8668" y2="52.2351">
		<stop  offset="0" style="stop-color:#FFE0A2"/>
		<stop  offset="0.1932" style="stop-color:#F3C980"/>
		<stop  offset="0.237" style="stop-color:#F0C377"/>
		<stop  offset="0.2894" style="stop-color:#F1C67B"/>
		<stop  offset="0.3402" style="stop-color:#F3CD87"/>
		<stop  offset="0.3902" style="stop-color:#F7DA9A"/>
		<stop  offset="0.4396" style="stop-color:#FCECB5"/>
		<stop  offset="0.4661" style="stop-color:#FFF8C7"/>
		<stop  offset="0.4882" style="stop-color:#FBEEB6"/>
		<stop  offset="0.5385" style="stop-color:#F5DB95"/>
		<stop  offset="0.5928" style="stop-color:#EFCB7A"/>
		<stop  offset="0.6516" style="stop-color:#EABF65"/>
		<stop  offset="0.7172" style="stop-color:#E7B756"/>
		<stop  offset="0.7949" style="stop-color:#E6B24E"/>
		<stop  offset="0.9156" style="stop-color:#E5B04B"/>
	</linearGradient>
	<path class="st5" d="M137.2,50h9.8c0.8,0,1.1-0.3,1.1-0.6c0.1-0.6-0.4-0.7-0.9-0.9l-6.3-1.9c-1-0.3-1.4-0.9-1.7-1.3
		c-0.5-1.1-0.3-2.6,0.1-3.9c0.3-1.1,0.7-2.5,2.1-3.5c0.7-0.6,1.8-1.1,3.3-1.1h11.6l-1.2,4.4h-9c-0.7,0-0.8,0.1-1,0.1
		c-0.2,0.1-0.4,0.3-0.4,0.5c-0.1,0.6,0.6,0.8,1.2,1l5.5,1.6c0.7,0.2,1.7,0.6,2.1,1.2c0.8,1.1,0.5,2.8,0.1,4c-0.3,1-0.7,2.4-1.8,3.5
		c-1.4,1.3-2.7,1.4-3.9,1.4H136L137.2,50z"/>
</g>
</svg>
