<?xml version="1.0" encoding="utf-8"?>
<!-- Generator: Adobe Illustrator 23.0.3, SVG Export Plug-In . SVG Version: 6.00 Build 0)  -->
<svg version="1.1" id="Слой_1" xmlns="http://www.w3.org/2000/svg" xmlns:xlink="http://www.w3.org/1999/xlink" x="0px" y="0px"
	 viewBox="0 0 283.5 198.4" style="enable-background:new 0 0 283.5 198.4;" xml:space="preserve">
<style type="text/css">
	.st0{fill:#FFFFFF;}
	.st1{fill:none;stroke:#F39200;stroke-width:4;stroke-linecap:round;stroke-linejoin:round;stroke-miterlimit:10;}
	.st2{fill:#F39200;}
</style>
<g>
	<polygon class="st0" points="72,45.5 70.2,90.8 97.5,45.5 121.2,45.5 74.8,113.6 51.3,113.6 48.4,45.5 	"/>
	<path class="st0" d="M161.4,113.6l-4.1-68.1h-23.8l-47.1,68.1h22.9l5.6-9h23.3l-0.1,9H161.4z M123.8,90.4L138.6,66l-0.1,24.4H123.8
		z"/>
	<path class="st0" d="M235,99.2c-1.2,2.5-4.8,6.7-6.8,8.7c-1,1-5.6,4-7.8,4.9c-6.2,2.8-10.4,2.6-21.6,2.6
		c-15.6,0-28.7-8.1-30.3-25.3c-1.5-16.5,7.9-46.3,42.4-46.3c14.6,0,28.8,6.7,30.4,23.2l0.2,2.1h-22.2c-1-5.6-4.9-8.6-10.9-8.6
		c-13.9,0-17.2,18-16.4,26.8c0.6,6.5,4,11.5,12.8,11.5c4.8,0,11.2-3.1,13-7.8h-10.3l2-14.7l31.7,1.3C241.1,77.5,238.6,91.9,235,99.2
		z"/>
</g>
<g>
	<g>
		<path class="st0" d="M49.5,149c0,0.2-0.1,0.5-0.1,0.7c0,1.4,1.2,2.2,2.7,2.2c2.8,0,3.4-1.6,3.4-2.3c0-3.3-12.4-0.8-12.4-8.1
			c0-6.2,6.6-9.2,12.9-9.2c4.8,0,10.1,1,10.1,6.3c0,0.2,0,0.8-0.1,1.1h-8.4c0-1.6-0.8-2.3-2.3-2.3c-1.6,0-3,0.6-3,1.6
			c0,3.4,12.8,1.5,12.8,8.9c0,4.9-5.4,9.1-14.5,9.1c-5,0-10.1-1.4-10.1-6.7c0-0.3,0-1,0.1-1.2h8.9V149z"/>
		<path class="st0" d="M99,146.7c0.3-1.5,0.4-2.9,0.4-4.1c0-6.4-3.9-10.3-11.1-10.3c-9.3,0-16.2,7.4-16.2,15.5c0,6,4.5,9.2,11,9.2
			c5.4,0,11.7-1.9,14.6-7.7h-8.9c-1,1.4-2.5,2.1-3.9,2.1c-2.1,0-3.7-1.4-3.7-3.6c0-0.3,0-0.7,0.1-1L99,146.7L99,146.7z M87.5,137.9
			c1.9,0,3.3,1.5,3.3,3.3c0,0.1,0,0.5-0.1,0.8h-8.4C82.8,139.4,84.8,137.9,87.5,137.9z"/>
		<path class="st0" d="M116.7,137.6L116.7,137.6c2.1-3.7,4.8-5.4,8.4-5.4c0.4,0,0.8,0.1,1.2,0.1l-2,9.3c-0.6-0.1-1.2-0.3-1.9-0.3
			c-3.8,0-6.1,1.8-7.2,6.8l-1.7,8.1h-9.3l5-23.4h8.4L116.7,137.6z"/>
		<polygon class="st0" points="140.3,132.9 141.2,147.7 148.4,132.9 157.4,132.9 144.5,156.3 134.1,156.3 131,132.9 		"/>
		<polygon class="st0" points="168.1,156.3 158.8,156.3 163.8,132.9 173.1,132.9 		"/>
		<path class="st0" d="M195.5,141.8c0-0.2,0.1-0.7,0.1-0.8c0-1.4-1-2.5-2.8-2.5c-4.6,0-5.7,6.8-5.7,8.6c0,2.2,1,3.6,3.1,3.6
			c2.4,0,3.7-1.6,4.3-3.5h9.4c-2.3,7.1-8.6,9.7-15,9.7c-6.5,0-11.1-3.2-11.1-9.1c0-7.7,6.1-15.6,16.4-15.6c5.8,0,10.8,2.3,10.8,8.2
			c0,0.4,0,0.9-0.1,1.3h-9.4V141.8z"/>
		<path class="st0" d="M237.5,146.7c0.3-1.5,0.4-2.9,0.4-4.1c0-6.4-3.9-10.3-11.1-10.3c-9.3,0-16.2,7.4-16.2,15.5
			c0,6,4.5,9.2,11,9.2c5.4,0,11.7-1.9,14.6-7.7h-8.9c-1,1.4-2.5,2.1-3.9,2.1c-2.1,0-3.7-1.4-3.7-3.6c0-0.3,0-0.7,0.1-1L237.5,146.7
			L237.5,146.7z M226,137.9c1.9,0,3.3,1.5,3.3,3.3c0,0.1,0,0.5-0.1,0.8h-8.4C221.3,139.4,223.3,137.9,226,137.9z"/>
	</g>
</g>
<circle class="st0" cx="170.4" cy="123.8" r="4.9"/>
<line class="st1" x1="40.4" y1="124.8" x2="158.6" y2="124.8"/>
<line class="st1" x1="183.3" y1="123.8" x2="243.1" y2="123.8"/>
<path class="st2" d="M172,55.1c-4.5,5.9-7.2,12.8-7.2,12.8l-1.2-22.4H184C184,45.5,175.1,50.9,172,55.1z"/>
</svg>
